<?xml version="1.0" encoding="utf-8"?>
<!-- Generator: Adobe Illustrator 25.0.0, SVG Export Plug-In . SVG Version: 6.00 Build 0)  -->
<svg version="1.1" id="Layer_1" xmlns="http://www.w3.org/2000/svg" xmlns:xlink="http://www.w3.org/1999/xlink" x="0px" y="0px"
	 viewBox="0 0 180.8 178.8" style="enable-background:new 0 0 180.8 178.8;" xml:space="preserve">
<style type="text/css">
	.st0{fill:#756DE2;}
	.st1{fill:#E25A5A;}
	.st2{fill:#659CFC;}
	.st3{fill:#4343C4;}
</style>
<path class="st0" d="M43.3,0.8c5.6-0.2,11.2,0.8,16.4,3C69.8,8,78,16,82.5,26.1c2.3,5.1,3.3,10.6,3.2,16.1c0.2,5.5-0.9,11-3.2,16.1
	C78,68.4,69.9,76.4,59.7,80.6c-5.2,2.2-10.8,3.2-16.4,3.1c-5.6,0.2-11.3-0.9-16.5-3.1C16.6,76.4,8.4,68.3,4,58.2
	c-2.2-5-3.3-10.5-3.2-16c-0.1-5.5,1-11,3.2-16c2.2-5,5.3-9.5,9.2-13.3c3.9-3.8,8.6-6.9,13.6-9C32,1.7,37.6,0.6,43.3,0.8z M49.5,65.5
	c2.8-0.7,5.5-2,7.7-3.9c2.2-1.8,4-4,5.4-6.5c1.4-2.7,2.2-5.5,2.5-8.5c0.3-3.4,0-6.7-0.9-10c-0.8-3.2-2.2-6.3-4.1-9
	c-1.7-2.4-3.9-4.5-6.4-6.2c-2.4-1.5-5-2.6-7.8-3c-2.9-0.4-5.8-0.2-8.6,0.5c-2.9,0.7-5.5,2-7.8,3.8c-2.2,1.8-4,4-5.3,6.5
	c-1.4,2.7-2.3,5.6-2.5,8.6c-0.3,3.4,0,6.7,0.9,10c0.8,3.3,2.2,6.4,4.2,9.1c1.7,2.4,4,4.5,6.5,6.1c2.4,1.5,5.1,2.5,7.9,2.9
	C43.8,66.5,46.7,66.3,49.5,65.5z"/>
<path class="st1" d="M137.1,40.6c2.8-0.8,5.2-1.5,7.4-2.2c1.9-0.6,3.8-1.4,5.6-2.3c1.4-0.7,2.6-1.7,3.5-3c0.8-1.3,1.3-2.8,1.2-4.3
	c0-1.8-0.4-3.5-1.1-5.2c-0.7-1.6-1.7-3.1-3-4.4c-1.4-1.3-3-2.3-4.7-3c-2-0.8-4.1-1.1-6.3-1.1c-2.6,0-5.2,0.4-7.6,1.2
	c-2.1,0.7-4,1.8-5.6,3.2c-1.5,1.3-2.7,2.9-3.5,4.8c-0.8,1.9-1.2,3.9-1.2,5.9c0,1,0.1,2.1,0.3,3.1c0.2,1.1,0.5,2.2,0.9,3.2l-19.2,8.1
	c-1-1.9-1.8-3.9-2.2-6c-0.5-2.6-0.8-5.2-0.8-7.8c0-4.2,0.9-8.3,2.8-12c1.9-3.8,4.5-7.1,7.8-9.7c3.6-2.9,7.8-5.1,12.3-6.5
	c5.2-1.7,10.7-2.5,16.1-2.4c5-0.1,10,0.7,14.8,2.4c4.2,1.4,8,3.6,11.4,6.4c3.1,2.6,5.6,5.8,7.4,9.4c1.7,3.5,2.6,7.4,2.6,11.3
	c0,6.9-2.2,12.2-6.7,16s-11,6.7-19.5,8.7l-11.7,2.9c-1.3,0.3-2.9,0.7-4.7,1.1s-3.5,1-5.2,1.5c-1.4,0.5-2.8,1-4.2,1.7
	c-1.1,0.6-1.7,1.1-1.7,1.7V64h52.6v18.4H97.6v-8.6c0-3.4,0.5-6.8,1.7-10.1c1.2-3.2,3.1-6.1,5.5-8.5c3-2.9,6.4-5.3,10.1-7.1
	c4.9-2.4,10.1-4.3,15.4-5.7L137.1,40.6z"/>
<path class="st2" d="M37,158.1c4.6,0.1,9.1-0.4,13.5-1.7c3.1-0.9,5.9-2.5,8.2-4.7c2-1.9,3.4-4.3,4.1-7c0.8-2.8,1.2-5.8,1.2-8.8
	c0-2.9-0.4-5.9-1.2-8.7c-0.7-2.6-2.2-5-4.1-6.9c-2.4-2.1-5.2-3.7-8.3-4.5c-4.4-1.2-8.9-1.7-13.5-1.6H22v33.6l-19.2-0.7V95.9H37
	c15.3,0,27.1,3.2,35.4,9.7s12.5,16.6,12.5,30.4c0.1,6.2-1,12.3-3.3,18c-2.1,4.9-5.3,9.3-9.5,12.6c-4.5,3.5-9.6,6-15.1,7.4
	c-6.5,1.7-13.3,2.5-20,2.4H2.9v-18.5H37z"/>
<path class="st3" d="M137.7,94.9c5.6-0.2,11.2,0.8,16.4,3c10.2,4.2,18.3,12.2,22.8,22.3c2.3,5.1,3.3,10.6,3.2,16.1
	c0.2,5.5-0.9,11-3.2,16.1c-4.4,10.1-12.6,18.1-22.8,22.3c-5.2,2.2-10.8,3.2-16.4,3.1c-5.6,0.2-11.3-0.9-16.5-3.1
	c-5.1-2.1-9.7-5.1-13.6-9c-3.9-3.8-7-8.4-9.2-13.4c-4.3-10.2-4.3-21.8,0-32c2.2-5,5.3-9.5,9.2-13.3c3.9-3.8,8.6-6.9,13.6-9
	C126.4,95.9,132,94.8,137.7,94.9z M143.9,159.7c2.8-0.7,5.5-2,7.7-3.9c2.2-1.8,4-4,5.4-6.5c1.4-2.7,2.2-5.5,2.5-8.5
	c0.3-3.4,0-6.7-0.9-10c-0.8-3.2-2.2-6.3-4.1-9c-1.7-2.4-3.9-4.5-6.4-6.2c-2.4-1.5-5.1-2.5-7.9-2.9c-2.9-0.4-5.8-0.2-8.6,0.5
	c-2.9,0.7-5.5,2-7.8,3.9c-2.2,1.8-4,4-5.4,6.5c-1.4,2.7-2.2,5.6-2.5,8.6c-0.3,3.4,0,6.7,0.9,10c0.8,3.3,2.2,6.4,4.2,9.2
	c1.7,2.4,4,4.5,6.5,6.1c2.4,1.5,5.1,2.5,7.9,2.9C138.2,160.7,141.1,160.4,143.9,159.7L143.9,159.7z"/>
</svg>
